<svg xmlns="http://www.w3.org/2000/svg" width="512" height="512" viewBox="0 0 512 512">
  <g id="Group_301" data-name="Group 301" transform="translate(-21919 -2903)">
    <g id="Group_293" data-name="Group 293">
      <g id="Group_292" data-name="Group 292" transform="translate(601)">
        <g id="Group_290" data-name="Group 290" transform="translate(575)">
          <g id="Group_288" data-name="Group 288" transform="translate(575)">
            <g id="Group_286" data-name="Group 286" transform="translate(575)">
              <g id="Group_284" data-name="Group 284" transform="translate(575)">
                <g id="telegram-svgrepo-com" transform="translate(19018 2903)">
                  <rect id="Rectangle_52" data-name="Rectangle 52" width="512" height="512" rx="76.8" fill="none"/>
                </g>
              </g>
            </g>
          </g>
        </g>
      </g>
      <g id="github-svgrepo-com" transform="translate(22291.248 2741.782)">
        <path id="Path_426" data-name="Path 426" d="M12.506,363.559a5.686,5.686,0,0,1-1.368-3.99,173.031,173.031,0,0,0-9.8-66.8c-1.026-2.736-2.28-3.762-5.13-2.964-6.384,1.938-13,3.42-19.265,5.7-17.327,6.27-33.172,15.389-48.561,25.306a9.014,9.014,0,0,1-5.928,1.368c-25.192-4.446-50.5-4.218-75.8-.342a12.866,12.866,0,0,1-7.751-1.482c-17.9-11.627-36.136-23.026-57-28.5-17.213-4.56-13.679-5.472-18.581,10.145a159.157,159.157,0,0,0-6.84,57.68c.114,1.368-.912,3.078-1.824,4.332a88.256,88.256,0,0,0-16.871,30.094c-6.84,21.659-5.472,43.545-1.14,65.318,8.549,42.747,37.39,72.727,80.023,80.137,22,3.876,44.685,4.218,65.318,5.928,23.026-1.71,44.343-1.824,65.09-5.13,36.25-5.814,63.608-25.078,77.287-60.074,4.788-12.2,7.41-25.534,9.005-38.529C37.014,413.145,32.113,386.243,12.506,363.559ZM-7.671,482.567c-3.762,17.783-14.135,29.98-31.462,36.25-16.757,6.156-34.084,8.663-51.753,9.8-8.549.57-17.1.114-25.648.114-23.026.456-46.053-.456-68.281-7.068-27.928-8.321-40.467-24.964-41.265-54.146-.342-10.373.8-20.4,5.7-29.752,9.689-18.809,26.446-25.42,46.281-25.762a316.412,316.412,0,0,1,32.716,1.824c22.912,2.052,45.6-.114,68.4-1.368,10.031-.57,20.291-.8,30.094.912C-21.806,417.021-5.847,438-5.5,461.592A108.25,108.25,0,0,1-7.671,482.567Z" transform="translate(0 0)" fill="#fff"/>
        <path id="Path_427" data-name="Path 427" d="M-190.423,425.214c-6.27,6.5-8.435,14.705-8.777,22,0,10.943,3.192,19.721,8.777,25.42,7.751,7.865,18.353,7.638,25.762-.342,11.171-12.083,11.057-34.768,0-46.737C-172.07,417.462-182.9,417.348-190.423,425.214Z" transform="translate(9.483 18.254)" fill="#fff"/>
        <path id="Path_428" data-name="Path 428" d="M-98.225,424.3c-12.767,11.741-12.767,37.617,0,49.245,7.41,6.726,17.441,6.384,24.394-.8,6.384-6.612,8.663-14.933,8.891-23.938-.228-9.005-2.508-17.213-9.005-23.824C-80.9,417.8-90.929,417.573-98.225,424.3Z" transform="translate(22.273 18.257)" fill="#fff"/>
      </g>
    </g>
  </g>
</svg>
