<svg xmlns="http://www.w3.org/2000/svg" width="512" height="512" viewBox="0 0 512 512">
  <g id="Group_295" data-name="Group 295" transform="translate(-18443 -2903)">
    <g id="telegram-svgrepo-com" transform="translate(18443 2903)">
      <rect id="Rectangle_52" data-name="Rectangle 52" width="512" height="512" rx="76.8" fill="none"/>
      <path id="Path_407" data-name="Path 407" d="M199,404c-11,0-10-4-13-14L154,285,399,141" fill="#c8daea"/>
      <path id="Path_408" data-name="Path 408" d="M199,404c7,0,11-4,16-8l45-43-56-34" fill="#a9c9dd"/>
      <path id="Path_409" data-name="Path 409" d="M204,319l135,99c14,9,26,4,30-14l55-258c5-22-9-32-24-25L79,245c-21,8-21,21-4,26l83,26L348,176c9-5,17-3,11,4" fill="#f6fbfe"/>
    </g>
  </g>
</svg>
