<svg xmlns="http://www.w3.org/2000/svg" width="512" height="512" viewBox="0 0 512 512">
  <g id="Group_302" data-name="Group 302" transform="translate(-22494 -2903)">
    <g id="Group_294" data-name="Group 294" transform="translate(575)">
      <g id="Group_292" data-name="Group 292" transform="translate(601)">
        <g id="Group_290" data-name="Group 290" transform="translate(575)">
          <g id="Group_288" data-name="Group 288" transform="translate(575)">
            <g id="Group_286" data-name="Group 286" transform="translate(575)">
              <g id="Group_284" data-name="Group 284" transform="translate(575)">
                <g id="telegram-svgrepo-com" transform="translate(19018 2903)">
                  <rect id="Rectangle_52" data-name="Rectangle 52" width="512" height="512" rx="76.8" fill="#2c2c2d"/>
                </g>
              </g>
            </g>
          </g>
        </g>
      </g>
    </g>
    <path id="twitch-svgrepo-com" d="M9.211,0A9.211,9.211,0,0,0,0,9.211V211.864a9.212,9.212,0,0,0,9.211,9.211H46.057v46.057a9.211,9.211,0,0,0,15.206,6.993l61.893-53.051h88.707a9.219,9.219,0,0,0,6.514-2.7l55.269-55.27a9.215,9.215,0,0,0,2.7-6.513V9.211A9.212,9.212,0,0,0,267.132,0ZM184.229,147.383V55.269h18.423v92.115ZM128.96,55.269v92.115h18.423V55.269Z" transform="translate(22611.828 3020.828)" fill="#fff" fill-rule="evenodd"/>
  </g>
</svg>
