<svg xmlns="http://www.w3.org/2000/svg" width="512" height="512" viewBox="0 0 512 512">
  <g id="Group_296" data-name="Group 296" transform="translate(-19018 -2903)">
    <g id="Group_283" data-name="Group 283">
      <g id="telegram-svgrepo-com" transform="translate(19018 2903)">
        <rect id="Rectangle_52" data-name="Rectangle 52" width="512" height="512" rx="76.8" fill="none"/>
      </g>
      <g id="_7935ec95c421cee6d86eb22ecd12f847" data-name="7935ec95c421cee6d86eb22ecd12f847" transform="translate(19079.682 2970.193)">
        <path id="Path_412" data-name="Path 412" d="M310.751,118.318q.206,4.567.206,9.175c0,93.709-71.333,201.757-201.75,201.757A200.715,200.715,0,0,1,.5,297.39a143.638,143.638,0,0,0,16.918.994,142.279,142.279,0,0,0,88.072-30.359,70.973,70.973,0,0,1-66.244-49.244,70.964,70.964,0,0,0,32.025-1.213,70.958,70.958,0,0,1-56.884-69.53c0-.3,0-.6.007-.891a70.674,70.674,0,0,0,32.12,8.867A70.987,70.987,0,0,1,24.57,61.344a201.315,201.315,0,0,0,146.149,74.089,70.954,70.954,0,0,1,120.83-64.681,141.778,141.778,0,0,0,45.027-17.206A71.082,71.082,0,0,1,305.4,92.779a141.873,141.873,0,0,0,40.734-11.164A144.16,144.16,0,0,1,310.751,118.318Z" transform="translate(21)" fill="#f6fbfe"/>
      </g>
    </g>
  </g>
</svg>
