<svg xmlns="http://www.w3.org/2000/svg" width="512" height="512" viewBox="0 0 512 512">
  <g id="Group_299" data-name="Group 299" transform="translate(-20743 -2903)">
    <g id="Group_289" data-name="Group 289">
      <g id="Group_288" data-name="Group 288" transform="translate(575)">
        <g id="Group_286" data-name="Group 286" transform="translate(575)">
          <g id="Group_284" data-name="Group 284" transform="translate(575)">
            <g id="telegram-svgrepo-com" transform="translate(19018 2903)">
              <rect id="Rectangle_52" data-name="Rectangle 52" width="512" height="512" rx="76.8" fill="#2c2c2d"/>
            </g>
          </g>
        </g>
      </g>
      <g id="book-svgrepo-com_1_" data-name="book-svgrepo-com (1)" transform="translate(20892.096 3028.37)">
        <path id="Path_414" data-name="Path 414" d="M33.212,3.434C22.8,4.806,17.282,7.316,13.354,11.164S6.864,20.416,5.464,30.62C4.023,41.124,4,55.045,4,75.006V185.223A53.665,53.665,0,0,1,20.709,177.6c6.794-1.784,14.716-1.782,26.326-1.778H209.808V75.006c0-19.961-.023-33.882-1.464-44.386-1.4-10.2-3.962-15.607-7.89-19.456s-9.443-6.358-19.858-7.73C169.875,2.022,155.665,2,135.291,2H78.517C58.143,2,43.933,2.022,33.212,3.434ZM39.484,61.1A10.539,10.539,0,0,1,50.129,50.671H163.679a10.432,10.432,0,1,1,0,20.859H50.129A10.539,10.539,0,0,1,39.484,61.1ZM50.129,99.342a10.432,10.432,0,1,0,0,20.859H121.1a10.432,10.432,0,1,0,0-20.859Z" transform="translate(0 0)" fill="#f6fbfe" fill-rule="evenodd"/>
        <path id="Path_415" data-name="Path 415" d="M48.328,17.135H209.446c-.045,14.543-.277,25.388-1.452,33.957-1.4,10.2-3.962,15.608-7.89,19.457s-9.443,6.357-19.858,7.729c-10.721,1.412-24.931,1.434-45.3,1.434H78.167c-20.374,0-34.583-.022-45.3-1.434C22.447,76.906,16.932,74.4,13,70.549S6.514,61.3,5.114,51.092c-.53-3.864-.869-8.191-1.084-13.11A31.69,31.69,0,0,1,25.869,18.2C29.589,17.225,34.443,17.135,48.328,17.135Z" transform="translate(0.35 179.548)" fill="#f6fbfe"/>
      </g>
    </g>
  </g>
</svg>
