<svg xmlns="http://www.w3.org/2000/svg" width="512" height="512" viewBox="0 0 512 512">
  <g id="Group_298" data-name="Group 298" transform="translate(-20168 -2903)">
    <g id="Group_287" data-name="Group 287">
      <g id="Group_286" data-name="Group 286" transform="translate(575)">
        <g id="Group_284" data-name="Group 284" transform="translate(575)">
          <g id="telegram-svgrepo-com" transform="translate(19018 2903)">
            <rect id="Rectangle_52" data-name="Rectangle 52" width="512" height="512" rx="76.8" fill="none"/>
          </g>
        </g>
      </g>
      <g id="Page-1" transform="translate(20254.404 3040.24)">
        <g id="Dribbble-Light-Preview" transform="translate(0.001 -0.002)">
          <g id="icons" transform="translate(0)">
            <path id="youtube-_168_" data-name="youtube-[#168]" d="M379.472,7444.685v-95.306c33.8,15.935,59.969,31.36,90.9,47.816-25.524,14.25-57.1,30.022-90.9,47.49m188.3-142.633c-5.834-7.631-15.756-13.566-26.339-15.609-31.087-5.925-225-5.925-256.075,0a44.881,44.881,0,0,0-22.523,11.37c-27.322,25.446-18.757,161.459-12.177,183.5,2.781,9.5,6.36,16.456,10.871,21.033,5.8,5.935,13.755,10.011,22.9,11.87,25.592,5.261,157.454,8.315,256.465.848a45.09,45.09,0,0,0,23.574-12.208c25.27-25.282,23.54-168.926,3.307-200.807" transform="translate(-244.001 -7282)" fill="#f6fbfe" fill-rule="evenodd"/>
          </g>
        </g>
      </g>
    </g>
  </g>
</svg>
