<svg width="24" height="24" viewBox="0 0 24 24" fill="none" xmlns="http://www.w3.org/2000/svg">
<path d="M6 9.33298C5.449 9.33298 5 9.78098 5 10.333V14.999C5.01152 15.2565 5.12191 15.4996 5.30818 15.6777C5.49446 15.8558 5.74226 15.9553 6 15.9553C6.25774 15.9553 6.50554 15.8558 6.69182 15.6777C6.87809 15.4996 6.98848 15.2565 7 14.999V10.333C7 9.78098 6.551 9.33298 6 9.33298ZM17.333 9.33298C16.782 9.33298 16.333 9.78098 16.333 10.333V14.999C16.3445 15.2565 16.4549 15.4996 16.6412 15.6777C16.8275 15.8558 17.0753 15.9553 17.333 15.9553C17.5907 15.9553 17.8385 15.8558 18.0248 15.6777C18.2111 15.4996 18.3215 15.2565 18.333 14.999V10.333C18.333 9.78098 17.885 9.33298 17.333 9.33298ZM15.333 9.33298H8C7.91168 9.33298 7.82698 9.36807 7.76453 9.43052C7.70208 9.49297 7.667 9.57767 7.667 9.66598V15C7.66761 15.3839 7.8005 15.7559 8.04329 16.0534C8.28608 16.3508 8.62395 16.5555 9 16.633V19C9.01152 19.2575 9.12191 19.5006 9.30818 19.6787C9.49446 19.8568 9.74226 19.9563 10 19.9563C10.2577 19.9563 10.5055 19.8568 10.6918 19.6787C10.8781 19.5006 10.9885 19.2575 11 19V16.666H12.333V19C12.3445 19.2575 12.4549 19.5006 12.6412 19.6787C12.8275 19.8568 13.0753 19.9563 13.333 19.9563C13.5907 19.9563 13.8385 19.8568 14.0248 19.6787C14.2111 19.5006 14.3215 19.2575 14.333 19V16.634C14.7095 16.5568 15.0478 16.3521 15.2909 16.0544C15.5339 15.7567 15.6668 15.3843 15.667 15V9.66498C15.667 9.62117 15.6584 9.57779 15.6416 9.53732C15.6248 9.49685 15.6001 9.4601 15.5691 9.42916C15.5381 9.39823 15.5013 9.37372 15.4607 9.35705C15.4202 9.34037 15.3768 9.33185 15.333 9.33198V9.33298ZM14.09 5.37998L14.902 4.56898C14.9585 4.50536 14.9887 4.42255 14.9862 4.33746C14.9837 4.25237 14.9489 4.17144 14.8888 4.11118C14.8286 4.05093 14.7478 4.01591 14.6627 4.01327C14.5776 4.01063 14.4947 4.04057 14.431 4.09698L13.484 5.04399C12.9117 4.7914 12.2925 4.66258 11.667 4.66598C11.0411 4.66244 10.4216 4.79126 9.849 5.04399L8.903 4.09698C8.87194 4.06593 8.83507 4.04129 8.79449 4.02448C8.75391 4.00767 8.71042 3.99902 8.6665 3.99902C8.5778 3.99902 8.49272 4.03426 8.43 4.09698C8.36728 4.15971 8.33204 4.24478 8.33204 4.33348C8.33204 4.42219 8.36728 4.50726 8.43 4.56998L9.242 5.38198C8.274 6.03798 7.666 7.09398 7.666 8.33398C7.666 8.51798 7.815 8.66698 7.999 8.66698H15.332C15.516 8.66698 15.666 8.51698 15.666 8.33398C15.666 7.09398 15.058 6.03798 14.089 5.38198L14.09 5.37998ZM10 7.33399C9.91155 7.33399 9.82672 7.29885 9.76418 7.2363C9.70164 7.17376 9.6665 7.08893 9.6665 7.00048C9.6665 6.91204 9.70164 6.82721 9.76418 6.76466C9.82672 6.70212 9.91155 6.66699 10 6.66699C10.0884 6.66699 10.1733 6.70212 10.2358 6.76466C10.2984 6.82721 10.3335 6.91204 10.3335 7.00048C10.3335 7.08893 10.2984 7.17376 10.2358 7.2363C10.1733 7.29885 10.0884 7.33399 10 7.33399ZM13.333 7.33399C13.2877 7.33647 13.2423 7.32968 13.1997 7.31405C13.1571 7.29841 13.1181 7.27424 13.0851 7.24303C13.0521 7.21182 13.0259 7.17421 13.0079 7.13251C12.99 7.09081 12.9807 7.04588 12.9807 7.00048C12.9807 6.95509 12.99 6.91016 13.0079 6.86846C13.0259 6.82676 13.0521 6.78915 13.0851 6.75794C13.1181 6.72673 13.1571 6.70256 13.1997 6.68692C13.2423 6.67129 13.2877 6.6645 13.333 6.66699C13.4183 6.67166 13.4986 6.70883 13.5573 6.77086C13.616 6.83289 13.6487 6.91507 13.6487 7.00048C13.6487 7.0859 13.616 7.16808 13.5573 7.23011C13.4986 7.29214 13.4183 7.32931 13.333 7.33399Z" fill="#A8AFB6"/>
</svg>
