<svg xmlns="http://www.w3.org/2000/svg" width="42" height="42" viewBox="0 0 42 42">
  <path id="ï_" data-name="ï¶" d="M42.125,21.942a8.268,8.268,0,0,1-3.855,7.137,8.544,8.544,0,0,1-10.008,10.09,8.492,8.492,0,0,1-7.137,3.773,8.6,8.6,0,0,1-7.137-3.773A8.389,8.389,0,0,1,6.277,36.79a8.489,8.489,0,0,1-2.3-7.711,8.457,8.457,0,0,1,0-14.191,8.709,8.709,0,0,1,2.3-7.793,8.617,8.617,0,0,1,7.711-2.3A8.675,8.675,0,0,1,21.125.942,8.563,8.563,0,0,1,28.262,4.8,8.473,8.473,0,0,1,38.27,14.887,8.419,8.419,0,0,1,42.125,21.942Zm-13.043-3.2a1.914,1.914,0,0,0-2.707-2.707l-7.793,7.793-2.625-2.543a1.8,1.8,0,0,0-2.707,0,1.8,1.8,0,0,0,0,2.707l3.938,3.938a1.69,1.69,0,0,0,1.395.574,1.632,1.632,0,0,0,1.313-.574Z" transform="translate(-0.125 -0.942)" fill="#27ff8f"/>
</svg>
