<svg xmlns="http://www.w3.org/2000/svg" width="40" height="51.2" viewBox="0 0 40 51.2">
  <g id="oasys.302a7092" transform="translate(0 -0.032)">
    <path id="Path_78062" data-name="Path 78062" d="M20,51.231c-11.4,0-20-3.37-20-7.832s8.6-7.832,20-7.832,20,3.37,20,7.832S31.4,51.231,20,51.231Zm0-13.8c-10.631,0-18.04,3.143-18.04,5.964S9.369,49.363,20,49.363,38.04,46.22,38.04,43.4,30.632,37.436,20,37.436Z" fill="#27ff8f"/>
    <path id="Path_78063" data-name="Path 78063" d="M20,51.231c-11.4,0-20-3.37-20-7.832s8.6-7.832,20-7.832,20,3.37,20,7.832S31.4,51.231,20,51.231Zm0-13.8c-10.631,0-18.04,3.143-18.04,5.964S9.369,49.363,20,49.363,38.04,46.22,38.04,43.4,30.632,37.436,20,37.436Z" fill="#27ff8f"/>
    <path id="Path_78064" data-name="Path 78064" d="M20,51.232c-7.794,0-16.079-2.246-16.079-6.412,0-1.879,1.8-3.566,5.057-4.745a33.533,33.533,0,0,1,11.028-1.667c7.794,0,16.079,2.246,16.079,6.412,0,1.879-1.8,3.566-5.057,4.745A33.535,33.535,0,0,1,20,51.232Zm0-10.955A31.57,31.57,0,0,0,9.67,41.818c-2.373.861-3.789,1.979-3.789,3s1.416,2.136,3.789,3A31.392,31.392,0,0,0,20,49.353a31.549,31.549,0,0,0,10.33-1.541c2.373-.861,3.789-1.979,3.789-3s-1.416-2.136-3.789-3A31.392,31.392,0,0,0,20,40.277Z" fill="#27ff8f"/>
    <path id="Path_78065" data-name="Path 78065" d="M20,51.232c-7.794,0-16.079-2.246-16.079-6.412,0-1.879,1.8-3.566,5.057-4.745a33.533,33.533,0,0,1,11.028-1.667c7.794,0,16.079,2.246,16.079,6.412,0,1.879-1.8,3.566-5.057,4.745A33.535,33.535,0,0,1,20,51.232Zm0-10.955A31.57,31.57,0,0,0,9.67,41.818c-2.373.861-3.789,1.979-3.789,3s1.416,2.136,3.789,3A31.392,31.392,0,0,0,20,49.353a31.549,31.549,0,0,0,10.33-1.541c2.373-.861,3.789-1.979,3.789-3s-1.416-2.136-3.789-3A31.392,31.392,0,0,0,20,40.277Z" fill="#27ff8f"/>
    <path id="Path_78066" data-name="Path 78066" d="M20,51.232a23.039,23.039,0,0,1-7.609-1.153c-2.346-.851-3.641-2.1-3.641-3.506s1.295-2.654,3.641-3.506A23.065,23.065,0,0,1,20,41.914a23.042,23.042,0,0,1,7.609,1.153c2.346.851,3.641,2.1,3.641,3.506s-1.295,2.654-3.641,3.506A23.062,23.062,0,0,1,20,51.232Zm0-7.45c-6.526,0-9.289,1.995-9.289,2.79s2.764,2.79,9.289,2.79,9.289-1.995,9.289-2.79S26.526,43.782,20,43.782Z" fill="#27ff8f"/>
    <path id="Path_78067" data-name="Path 78067" d="M20,51.232a23.039,23.039,0,0,1-7.609-1.153c-2.346-.851-3.641-2.1-3.641-3.506s1.295-2.654,3.641-3.506A23.065,23.065,0,0,1,20,41.914a23.042,23.042,0,0,1,7.609,1.153c2.346.851,3.641,2.1,3.641,3.506s-1.295,2.654-3.641,3.506A23.062,23.062,0,0,1,20,51.232Zm0-7.45c-6.526,0-9.289,1.995-9.289,2.79s2.764,2.79,9.289,2.79,9.289-1.995,9.289-2.79S26.526,43.782,20,43.782Z" fill="#27ff8f"/>
    <path id="Path_78068" data-name="Path 78068" d="M38.087,28.692,30.552,16.5a1.055,1.055,0,0,0-1.559-.237l-9.818,8.3a.946.946,0,0,0-.074,1.39l2.473,2.579A1.061,1.061,0,0,0,23,28.606l2.684-2.2A1.055,1.055,0,0,1,27.1,26.5l.639.67a.942.942,0,0,1,.016,1.295c-1.279,1.4-4.275,4.684-5.606,6.14a1.056,1.056,0,0,1-1.421.111L13.247,28.46a2.5,2.5,0,0,1-.433-3.561L26.531,11.315a.938.938,0,0,0,.069-1.088L20.56.365a.659.659,0,0,0-.354-.3.718.718,0,0,0-.412,0,.639.639,0,0,0-.354.3L1.918,28.692a.623.623,0,0,0,0,.912L18.8,45.7a1.766,1.766,0,0,0,2.4,0L38.087,29.6A.623.623,0,0,0,38.087,28.692Z" fill="#27ff8f"/>
    <path id="Path_78069" data-name="Path 78069" d="M38.087,28.692,30.552,16.5a1.055,1.055,0,0,0-1.559-.237l-9.818,8.3a.946.946,0,0,0-.074,1.39l2.473,2.579A1.061,1.061,0,0,0,23,28.606l2.684-2.2A1.055,1.055,0,0,1,27.1,26.5l.639.67a.942.942,0,0,1,.016,1.295c-1.279,1.4-4.275,4.684-5.606,6.14a1.056,1.056,0,0,1-1.421.111L13.247,28.46a2.5,2.5,0,0,1-.433-3.561L26.531,11.315a.938.938,0,0,0,.069-1.088L20.56.365a.659.659,0,0,0-.354-.3.718.718,0,0,0-.412,0,.639.639,0,0,0-.354.3L1.918,28.692a.623.623,0,0,0,0,.912L18.8,45.7a1.766,1.766,0,0,0,2.4,0L38.087,29.6A.623.623,0,0,0,38.087,28.692Z" fill="#27ff8f"/>
  </g>
</svg>
