<svg xmlns="http://www.w3.org/2000/svg" width="100" height="100" viewBox="0 0 100 100">
    <path d="M35.25 78 54 59.25 72.75 78 78 72.75 59.25 54 78 35.25 72.75 30 54 48.75 35.25 30 30 35.25 48.75 54 30 72.75zM54 104a50.713 50.713 0 0 1-19.75-3.812A48.394 48.394 0 0 1 7.813 73.75 50.713 50.713 0 0 1 4 54a50.389 50.389 0 0 1 3.813-19.625A48.8 48.8 0 0 1 18.375 18.5 49.848 49.848 0 0 1 54 4a49.6 49.6 0 0 1 50 50 49.848 49.848 0 0 1-14.5 35.625 48.8 48.8 0 0 1-15.875 10.563A50.389 50.389 0 0 1 54 104zm0-50zm0 42.5A40.915 40.915 0 0 0 84 84a40.915 40.915 0 0 0 12.5-30A40.915 40.915 0 0 0 84 24a40.914 40.914 0 0 0-30-12.5A40.915 40.915 0 0 0 24 24a40.915 40.915 0 0 0-12.5 30A40.914 40.914 0 0 0 24 84a40.915 40.915 0 0 0 30 12.5z" transform="translate(-4 -4)" style="fill:#ef1212"/>
</svg>
