<svg width="24" height="24" viewBox="0 0 24 24" fill="none" xmlns="http://www.w3.org/2000/svg">
<path d="M19.9932 8.40141C20.0288 7.63279 19.9218 6.86423 19.6775 6.1346C19.4837 5.67477 19.1906 5.26349 18.8192 4.93024C18.4478 4.59699 18.0073 4.35002 17.5293 4.20702C16.8976 4.04959 16.2471 3.98137 15.5965 4.00434H8.40312C7.75293 3.98156 7.10274 4.04978 6.47143 4.20702C5.9932 4.34988 5.55249 4.59679 5.1809 4.93005C4.80932 5.26331 4.51606 5.67465 4.32216 6.1346C4.07861 6.8644 3.97158 7.63283 4.00643 8.40141V15.5976C3.9725 16.3661 4.07951 17.1344 4.32216 17.8644C4.51606 18.3243 4.80932 18.7357 5.1809 19.0689C5.55249 19.4022 5.9932 19.6491 6.47143 19.792C7.10267 19.9497 7.75287 20.0183 8.40312 19.9957H15.5965C16.2467 20.0185 16.8969 19.9503 17.5282 19.793C18.0066 19.65 18.4473 19.403 18.8189 19.0695C19.1905 18.7361 19.4837 18.3245 19.6775 17.8644C19.9196 17.1347 20.0295 16.3667 19.9932 15.5976V8.40141ZM7.17755 14.9991H6.58343V11.4469H7.17755V14.9991ZM6.87889 10.8474C6.78101 10.8464 6.68753 10.8066 6.61902 10.7367C6.55051 10.6668 6.51258 10.5725 6.51357 10.4746C6.51456 10.3767 6.55439 10.2832 6.6243 10.2147C6.69421 10.1462 6.78848 10.1083 6.88636 10.1092C6.98424 10.1101 7.07777 10.1498 7.14638 10.2196C7.21499 10.2894 7.25306 10.3836 7.25221 10.4815C7.25137 10.5794 7.21167 10.673 7.14186 10.7416C7.07205 10.8102 6.97677 10.8483 6.87889 10.8474ZM10.45 15.0887C8.88204 15.0887 7.89326 13.9676 7.89326 12.184C7.89326 10.4015 8.87991 9.27613 10.45 9.27613C12.0201 9.27613 13.0099 10.4015 13.0099 12.184C13.0099 13.9676 12.0244 15.0887 10.45 15.0887ZM15.6285 15.0887C14.451 15.0887 13.6233 14.438 13.5635 13.4673H14.099C14.1576 14.1447 14.7923 14.6034 15.6765 14.6034C16.5202 14.6034 17.125 14.1426 17.125 13.511C17.125 12.9841 16.7624 12.6715 15.9261 12.4614L15.2275 12.28C14.1843 12.0144 13.7214 11.5739 13.7214 10.8314C13.7214 9.92043 14.5395 9.27293 15.6477 9.27293C16.7464 9.27293 17.5464 9.92363 17.5805 10.8154H17.045C16.9949 10.1796 16.4317 9.75616 15.6317 9.75616C14.8531 9.75616 14.2739 10.1903 14.2739 10.8101C14.2739 11.2933 14.6238 11.5792 15.4515 11.7893L16.0616 11.9472C17.1933 12.232 17.6701 12.6662 17.6701 13.4502C17.6711 14.4402 16.8744 15.0887 15.6285 15.0887ZM10.45 9.77002C9.21696 9.77002 8.44045 10.7034 8.44045 12.183C8.44045 13.6636 9.21696 14.5916 10.45 14.5916C11.683 14.5916 12.4649 13.6572 12.4649 12.183C12.4649 10.7087 11.6852 9.77002 10.45 9.77002Z" fill="#A8AFB6"/>
</svg>
