<svg xmlns="http://www.w3.org/2000/svg" width="44" height="36" viewBox="0 0 44 36">
  <path id="ï_" data-name="ï¼" d="M19.223,22.317A12.113,12.113,0,0,1,31.193,34.551a2.4,2.4,0,0,1-2.408,2.391H2.714A2.346,2.346,0,0,1,.375,34.551a12.055,12.055,0,0,1,11.9-12.234Zm-3.439-3.375a8.877,8.877,0,0,1-8.805-9,8.922,8.922,0,0,1,8.805-9,8.967,8.967,0,0,1,8.805,9A8.921,8.921,0,0,1,15.784,18.942ZM43.85,10.434a1.7,1.7,0,0,1,.069,2.391L36.765,20.7a1.492,1.492,0,0,1-1.169.492,1.4,1.4,0,0,1-1.17-.492l-3.852-3.937a1.562,1.562,0,0,1,0-2.32,1.485,1.485,0,0,1,2.27,0l2.683,2.672L41.511,10.5A1.615,1.615,0,0,1,43.85,10.434Z" transform="translate(-0.375 -0.942)" fill="#27ff8f"/>
</svg>
