<svg width="24" height="24" viewBox="0 0 24 24" fill="none" xmlns="http://www.w3.org/2000/svg">
<path d="M18.92 15.116C18.894 15.0752 18.8595 15.0407 18.8187 15.0148C18.7779 14.9888 18.7319 14.9722 18.684 14.966C18.1276 14.8891 17.6175 14.6142 17.2473 14.1918C16.877 13.7694 16.6714 13.2277 16.668 12.666C16.668 11.656 17.321 10.767 18.294 10.456C18.3427 10.4407 18.3872 10.4144 18.4241 10.3791C18.461 10.3438 18.4892 10.3005 18.5066 10.2525C18.524 10.2045 18.5302 10.1532 18.5245 10.1024C18.5188 10.0517 18.5016 10.003 18.474 9.96C17.654 8.673 16.442 8 15.668 8C15.036 8 14.444 8.199 13.922 8.374C13.474 8.524 13.05 8.667 12.668 8.667C12.285 8.667 11.862 8.525 11.414 8.374C10.892 8.2 10.3 8 9.667 8C8.422 8 6 9.765 6 13C6 16.075 8.243 20 10 20C10.935 20 11.487 19.753 11.931 19.555C12.208 19.431 12.426 19.333 12.667 19.333C12.907 19.333 13.125 19.431 13.402 19.555C13.846 19.753 14.399 20 15.333 20C16.727 20 18.299 17.608 18.958 15.391C18.9713 15.345 18.9746 15.2966 18.9677 15.2492C18.9608 15.2018 18.9438 15.1564 18.918 15.116H18.92Z" fill="#A8AFB6"/>
<path d="M12.335 8C13.3073 7.99921 14.2395 7.61261 14.927 6.92508C15.6146 6.23756 16.0012 5.30531 16.002 4.333C16.0017 4.24476 15.9665 4.16022 15.9041 4.09782C15.8417 4.03543 15.7572 4.00026 15.669 4C14.6966 4.00079 13.7644 4.38739 13.0769 5.07492C12.3893 5.76244 12.0027 6.6947 12.002 7.667C12.002 7.851 12.152 8 12.335 8Z" fill="#A8AFB6"/>
</svg>
