<svg width="32" height="32" viewBox="0 0 32 32" fill="none" xmlns="http://www.w3.org/2000/svg">
<g clip-path="url(#clip0_8245_143091)">
<rect width="32" height="32" rx="8" fill="url(#paint0_linear_8245_143091)"/>
<path d="M5 7V26H23V23.8703H7.15564V9.12965H23V7H5Z" fill="white"/>
<path d="M24.5761 14.7431C24.5761 14.2827 24.3921 13.8824 24.0238 13.5422C23.6557 13.2018 23.1443 13.0317 22.4795 13.0317C21.917 13.0317 21.4772 13.1418 21.15 13.372C20.8227 13.6022 20.6591 13.9025 20.6591 14.2827C20.6591 14.4829 20.7 14.6631 20.7818 14.8232C20.8636 14.9833 20.9966 15.1235 21.1909 15.2536C21.3852 15.3837 21.6409 15.4938 21.9682 15.5938C22.2852 15.6939 22.6943 15.784 23.1852 15.8741C24.4227 16.0943 25.3637 16.4646 26.0182 16.975C26.6727 17.4954 27 18.2561 27 19.2669V19.4671C27 20.0075 26.8978 20.4879 26.7034 20.9283C26.5091 21.3587 26.2228 21.729 25.8546 22.0392C25.4863 22.3495 25.0364 22.5797 24.5045 22.7498C23.9727 22.9099 23.3795 23 22.7148 23C21.9375 23 21.2625 22.8899 20.6693 22.6798C20.0761 22.4696 19.5852 22.1693 19.1965 21.789C18.8079 21.4087 18.5011 20.9683 18.3068 20.4579C18.1022 19.9475 18 19.387 18 18.7865V18.6864H20.2193C20.2193 19.377 20.4239 19.9275 20.833 20.3478C21.2421 20.7582 21.8761 20.9683 22.7455 20.9683C23.4204 20.9683 23.9216 20.8282 24.2489 20.538C24.5761 20.2477 24.7398 19.9075 24.7398 19.5171C24.7398 19.327 24.7091 19.1568 24.6375 18.9767C24.5659 18.8065 24.4534 18.6564 24.2796 18.5163C24.1159 18.3762 23.8807 18.2561 23.5841 18.146C23.2875 18.0359 22.9193 17.9458 22.4694 17.8657C21.8761 17.7657 21.3341 17.6356 20.833 17.4754C20.342 17.3152 19.9125 17.1051 19.5443 16.8449C19.1761 16.5846 18.9 16.2544 18.6955 15.8541C18.4909 15.4537 18.3886 14.9733 18.3886 14.4028V14.3028C18.3886 13.8323 18.4909 13.392 18.6852 12.9917C18.8795 12.5913 19.1557 12.241 19.5136 11.9408C19.8715 11.6405 20.2909 11.4103 20.792 11.2502C21.2932 11.0901 21.8454 11 22.4694 11C23.1648 11 23.7784 11.1001 24.3205 11.2902C24.8625 11.4804 25.3125 11.7406 25.6807 12.0709C26.0489 12.4012 26.2943 12.7915 26.5091 13.2118C26.775 13.7223 26.7852 14.7631 26.7852 14.7631L24.5761 14.7431Z" fill="white"/>
</g>
<defs>
<linearGradient id="paint0_linear_8245_143091" x1="16" y1="0" x2="16" y2="32" gradientUnits="userSpaceOnUse">
<stop stop-color="#313131"/>
<stop offset="1" stop-color="#202020"/>
</linearGradient>
<clipPath id="clip0_8245_143091">
<rect width="32" height="32" fill="white"/>
</clipPath>
</defs>
</svg>
