<svg xmlns="http://www.w3.org/2000/svg" width="100" height="100" viewBox="0 0 100 100">
    <g data-name="Group 1290">
        <g data-name="Ellipse 16" style="stroke:#4ee72c;stroke-width:4px;fill:none">
            <circle cx="50" cy="50" r="50" style="stroke:none"/>
            <circle cx="50" cy="50" r="48" style="fill:none"/>
        </g>
        <g data-name="Group 1274">
            <path data-name="Rectangle 827" transform="translate(26 26)" style="fill:none" d="M0 0h48v48H0z"/>
            <path d="M19.05 35.9 41.7 13.25l-2.15-2.15-20.5 20.5L8.5 21.05 6.35 23.2zm0 3a3.2 3.2 0 0 1-1.1-.2 2.725 2.725 0 0 1-1-.65L4.2 25.3a2.725 2.725 0 0 1-.65-1 3.125 3.125 0 0 1 0-2.2 2.725 2.725 0 0 1 .65-1l2.2-2.2a2.725 2.725 0 0 1 1-.65 3.125 3.125 0 0 1 2.2 0 2.725 2.725 0 0 1 1 .65l8.45 8.45 18.4-18.4a2.725 2.725 0 0 1 1-.65 3.125 3.125 0 0 1 2.2 0 2.725 2.725 0 0 1 1 .65l2.2 2.2a2.725 2.725 0 0 1 .65 1 3.125 3.125 0 0 1 0 2.2 2.725 2.725 0 0 1-.65 1l-22.7 22.7a2.725 2.725 0 0 1-1 .65 3.2 3.2 0 0 1-1.1.2z" transform="translate(26.975 26.5)" style="fill:#4ee72c"/>
        </g>
    </g>
</svg>
