<svg xmlns="http://www.w3.org/2000/svg" width="1147" height="291.642" viewBox="0 0 1147 291.642"><g transform="translate(-4420 -670.179)"><g transform="translate(0 -333)"><g transform="translate(4 -657.821)"><g transform="translate(1236)"><g transform="translate(3043 540.404)"><g transform="translate(-115.078 1003.544)"><path d="M252.078,196.363v133.02a12.8,12.8,0,0,0,6.4,11.088l115.2,66.509a12.805,12.805,0,0,0,12.8,0l115.2-66.51a12.8,12.8,0,0,0,6.4-11.087V196.363a12.8,12.8,0,0,0-6.4-11.083l-115.2-66.514a12.805,12.805,0,0,0-12.8,0l-115.2,66.513a12.8,12.8,0,0,0-6.4,11.084Z" fill="#121213"/><path d="M309.815,212.461l54.617-31.534a6.165,6.165,0,0,1,3.015-.718V124.435a6.165,6.165,0,0,0-3.015.718L261.516,184.574a6.174,6.174,0,0,0-2.129,2.251l48.3,27.884A6.135,6.135,0,0,1,309.815,212.461Z" transform="translate(13.517 13.655)" fill="#a664fe"/><path d="M307.375,240.255V177.19a6.166,6.166,0,0,1,.892-2.975l-48.3-27.884a6.174,6.174,0,0,0-.889,2.972V268.139a6.158,6.158,0,0,0,.886,2.969l48.3-27.887a6.148,6.148,0,0,1-.889-2.966Z" transform="translate(12.94 54.149)" fill="#a664fe" opacity="0.8"/><path d="M309.817,182.592a6.152,6.152,0,0,1-2.131-2.257l-48.3,27.887a6.166,6.166,0,0,0,2.131,2.254L364.434,269.9a6.178,6.178,0,0,0,3.018.721V214.844a6.176,6.176,0,0,1-3.018-.718Z" transform="translate(13.515 117.035)" fill="#a664fe" opacity="0.7"/><path d="M403.66,207.172a1.544,1.544,0,0,1-.006,2.676l-103.333,59.98a6.185,6.185,0,0,1-3.009.724V214.777a7.183,7.183,0,0,0,1.926-.276,5.34,5.34,0,0,0,1.083-.436l56.931-33.694Z" transform="translate(83.655 117.102)" fill="#a664fe" opacity="0.8"/><path d="M300.329,180.927l54.614,31.534a6.693,6.693,0,0,0,6.032,0l42.268-24.4c1.658-.957,1.658-2.525,0-3.482L300.329,125.153a6.184,6.184,0,0,0-3.017-.718v55.774a6.184,6.184,0,0,1,3.017.718Z" transform="translate(83.653 13.655)" fill="#a664fe"/><path d="M343.153,226.835l40.556-24-59.943-34.607L283.007,191.76Z" transform="translate(57.199 94.641)" fill="#a664fe" opacity="0.87"/><path d="M357.972,180.925v64.453a4.945,4.945,0,0,1-.712,2.365l-59.951-34.592V143.94a5.068,5.068,0,0,1,2.422.57l55.819,32.227a5.324,5.324,0,0,1,2.422,4.189Z" transform="translate(83.649 49.727)" fill="#171717"/><path d="M336.664,143.94v69.212l-59.951,34.592a4.9,4.9,0,0,1-.684-2.365V180.925a5.4,5.4,0,0,1,2.393-4.189L334.27,144.51a5.035,5.035,0,0,1,2.394-.57Z" transform="translate(44.303 49.729)" fill="#171717"/><path d="M338.155,221.69a5.34,5.34,0,0,0,1.083-.436l16.375-9.691-60.145-35.079-19.2,11.073.006.009.188-.108a6.153,6.153,0,0,0,2.131,2.257l54.617,31.534a6.165,6.165,0,0,0,3.015.718,14.355,14.355,0,0,0,1.93-.277Z" transform="translate(44.738 109.913)" fill="#171717"/></g></g></g></g><g transform="translate(-3 -11)"><g transform="translate(13 -651)"><text transform="translate(4707 1860)" fill="#fff" font-size="128" font-family="Orbitron-Black, Orbitron" font-weight="800"><tspan x="0" y="0">GAMEXPAD</tspan></text></g></g></g></g></svg>