<svg xmlns="http://www.w3.org/2000/svg" width="256" height="256" viewBox="0 0 256 256"><g transform="translate(-4739 -323)"><g transform="translate(1593 727)"><circle cx="128" cy="128" r="128" transform="translate(3146 -404)" fill="#121213"/><g transform="translate(3179.422 -383.746)"><g transform="translate(0 0)"><path d="M252.078,175.654v98.287a9.458,9.458,0,0,0,4.73,8.193l85.119,49.143a9.462,9.462,0,0,0,9.458,0l85.12-49.143a9.457,9.457,0,0,0,4.729-8.192V175.654a9.457,9.457,0,0,0-4.728-8.189l-85.121-49.146a9.462,9.462,0,0,0-9.458,0l-85.12,49.146a9.458,9.458,0,0,0-4.729,8.19Z" transform="translate(-252.078 -117.052)" fill="#121213"/><path d="M296.648,189.476,337,166.176a4.555,4.555,0,0,1,2.228-.531V124.435a4.555,4.555,0,0,0-2.228.531L260.96,168.871a4.562,4.562,0,0,0-1.573,1.663l35.688,20.6A4.533,4.533,0,0,1,296.648,189.476Z" transform="translate(-243.999 -108.89)" fill="#a664fe"/><path d="M294.764,215.73v-46.6a4.556,4.556,0,0,1,.659-2.2l-35.688-20.6a4.562,4.562,0,0,0-.657,2.2v87.807a4.551,4.551,0,0,0,.655,2.194l35.688-20.605a4.543,4.543,0,0,1-.657-2.192Z" transform="translate(-244.345 -84.687)" fill="#a664fe" opacity="0.8"/><path d="M296.649,182a4.546,4.546,0,0,1-1.575-1.668L259.386,200.94a4.556,4.556,0,0,0,1.575,1.665L337,246.514a4.564,4.564,0,0,0,2.23.533V205.833A4.563,4.563,0,0,1,337,205.3Z" transform="translate(-244 -47.1)" fill="#a664fe" opacity="0.7"/><path d="M375.891,200.174a1.141,1.141,0,0,1,0,1.977L299.535,246.47a4.57,4.57,0,0,1-2.223.535V205.793a5.309,5.309,0,0,0,1.423-.2,3.946,3.946,0,0,0,.8-.322l42.066-24.9Z" transform="translate(-202.077 -47.06)" fill="#a664fe" opacity="0.8"/><path d="M299.541,166.176l40.354,23.3a4.945,4.945,0,0,0,4.457,0l31.231-18.029a1.36,1.36,0,0,0,0-2.573l-76.042-43.909a4.569,4.569,0,0,0-2.229-.531v41.211A4.569,4.569,0,0,1,299.541,166.176Z" transform="translate(-202.079 -108.89)" fill="#a664fe"/><path d="M327.448,211.532,357.415,193.8l-44.291-25.571-30.116,17.388Z" transform="translate(-217.89 -60.485)" fill="#a664fe" opacity="0.87"/><path d="M342.132,171.268v47.624a3.654,3.654,0,0,1-.526,1.747l-44.3-25.56V143.94a3.744,3.744,0,0,1,1.79.421l41.244,23.812a3.934,3.934,0,0,1,1.79,3.1Z" transform="translate(-202.081 -87.33)" fill="#171717"/><path d="M320.832,143.94v51.14l-44.3,25.56a3.622,3.622,0,0,1-.505-1.747V171.268a3.99,3.99,0,0,1,1.768-3.1l41.265-23.811A3.721,3.721,0,0,1,320.832,143.94Z" transform="translate(-225.597 -87.328)" fill="#171717"/><path d="M322,209.886a3.945,3.945,0,0,0,.8-.322l12.1-7.161-44.44-25.919-14.187,8.182,0,.007.139-.08a4.547,4.547,0,0,0,1.575,1.668l40.356,23.3a4.556,4.556,0,0,0,2.228.531A10.616,10.616,0,0,0,322,209.886Z" transform="translate(-225.338 -51.357)" fill="#171717"/></g></g></g></g></svg>