<svg xmlns="http://www.w3.org/2000/svg" width="320.565" height="102.353" viewBox="0 0 320.565 102.353">
  <g id="Group_456" data-name="Group 456" transform="translate(-153.078 -400.408)">
    <g id="Group_445" data-name="Group 445">
      <text id="GAMEXPAD" transform="translate(259.907 464.085)" fill="#313131" font-size="38.928" font-family="SegoeUI, Segoe UI" letter-spacing="0.04em"><tspan x="0" y="0">GAMEX</tspan><tspan y="0" fill="#27ff8a">PAD</tspan></text>
      <text id="WEB3_GAMING_IN_YOUR_HANDS" data-name="WEB3 GAMING IN YOUR HANDS" transform="translate(264.643 478.085)" fill="#313131" font-size="9.2" font-family="SegoeUI, Segoe UI" letter-spacing="0.34em"><tspan x="0" y="0">WEB3 GAMING IN YOUR HANDS</tspan></text>
    </g>
    <g id="Group_447" data-name="Group 447" transform="translate(-99 283.357)">
      <path id="Path_603" data-name="Path 603" d="M252.078,144.886V191.57a4.493,4.493,0,0,0,2.246,3.891l40.43,23.342a4.494,4.494,0,0,0,4.492,0l40.43-23.342a4.493,4.493,0,0,0,2.246-3.891V144.886a4.491,4.491,0,0,0-2.246-3.89l-40.43-23.343a4.494,4.494,0,0,0-4.492,0L254.324,141A4.491,4.491,0,0,0,252.078,144.886Z" fill="#121213"/>
      <path id="Path_604" data-name="Path 604" d="M277.085,155.328l19.168-11.067a2.164,2.164,0,0,1,1.058-.252V124.435a2.164,2.164,0,0,0-1.058.252l-36.119,20.854a2.167,2.167,0,0,0-.747.79l16.952,9.786A2.153,2.153,0,0,1,277.085,155.328Z" fill="#27ff8a"/>
      <path id="Path_605" data-name="Path 605" d="M276.026,179.294V157.161a2.164,2.164,0,0,1,.313-1.044l-16.952-9.786a2.167,2.167,0,0,0-.312,1.043V189.08a2.161,2.161,0,0,0,.311,1.042l16.951-9.787A2.158,2.158,0,0,1,276.026,179.294Z" fill="#27ff8a" opacity="0.8"/>
      <path id="Path_606" data-name="Path 606" d="M277.085,181.127a2.159,2.159,0,0,1-.748-.792l-16.951,9.787a2.164,2.164,0,0,0,.748.791l36.119,20.854a2.168,2.168,0,0,0,1.059.253V192.446a2.168,2.168,0,0,1-1.059-.252Z" fill="#27ff8a"/>
      <path id="Path_607" data-name="Path 607" d="M334.635,189.777a.542.542,0,0,1,0,.939l-36.265,21.05a2.171,2.171,0,0,1-1.056.254V192.446a2.521,2.521,0,0,0,.676-.1,1.874,1.874,0,0,0,.38-.153l19.98-11.825Z" fill="#27ff8a" opacity="0.8"/>
      <path id="Path_608" data-name="Path 608" d="M298.37,144.261l19.167,11.067a2.349,2.349,0,0,0,2.117,0l14.834-8.565a.646.646,0,0,0,0-1.222L298.37,124.687a2.17,2.17,0,0,0-1.059-.252v19.574A2.17,2.17,0,0,1,298.37,144.261Z" fill="#27ff8a" opacity="0.8"/>
      <path id="Path_609" data-name="Path 609" d="M304.115,188.795l14.233-8.423-21.037-12.146-14.3,8.259Z" fill="#27ff8a"/>
      <path id="Path_610" data-name="Path 610" d="M318.6,156.92v22.62a1.736,1.736,0,0,1-.25.83l-21.04-12.14V143.94a1.779,1.779,0,0,1,.85.2l19.59,11.31a1.868,1.868,0,0,1,.85,1.47Z" fill="#313131"/>
      <path id="Path_611" data-name="Path 611" d="M297.309,143.94v24.29l-21.04,12.14a1.72,1.72,0,0,1-.24-.83V156.92a1.894,1.894,0,0,1,.84-1.47l19.6-11.31A1.767,1.767,0,0,1,297.309,143.94Z" fill="#313131"/>
      <path id="Path_612" data-name="Path 612" d="M297.988,192.349a1.874,1.874,0,0,0,.38-.153l5.747-3.4-21.108-12.311-6.738,3.886,0,0,.066-.038a2.159,2.159,0,0,0,.748.792l19.168,11.067a2.164,2.164,0,0,0,1.058.252A5.04,5.04,0,0,0,297.988,192.349Z" fill="#313131"/>
    </g>
  </g>
</svg>
