<svg width="32" height="32" viewBox="0 0 32 32" fill="none" xmlns="http://www.w3.org/2000/svg">
	<path d="M32 16C32 24.8366 24.8366 32 16 32C7.16344 32 0 24.8366 0 16C0 7.16344 7.16344 0 16 0C24.8366 0 32 7.16344 32 16Z" fill="#F7F8FB"/>
	<path d="M15.9975 6L15.8633 6.45577V19.6801L15.9975 19.814L22.1359 16.1855L15.9975 6Z" fill="#343434"/>
	<path d="M15.9985 6L9.85986 16.1855L15.9985 19.814V13.3952V6Z" fill="#8C8C8C"/>
	<path d="M15.9975 20.9767L15.9219 21.0689V25.7796L15.9975 26.0004L22.1397 17.3501L15.9975 20.9767Z" fill="#3C3C3B"/>
	<path d="M15.9985 26.0004V20.9767L9.85986 17.3501L15.9985 26.0004Z" fill="#8C8C8C"/>
	<path d="M15.9976 19.8137L22.136 16.1852L15.9976 13.395V19.8137Z" fill="#141414"/>
	<path d="M9.85986 16.1852L15.9985 19.8137V13.395L9.85986 16.1852Z" fill="#393939"/>
</svg>