<svg width="32" height="32" viewBox="0 0 32 32" fill="none" xmlns="http://www.w3.org/2000/svg">
	<path d="M32 16C32 24.8366 24.8366 32 16 32C7.16344 32 0 24.8366 0 16C0 7.16344 7.16344 0 16 0C24.8366 0 32 7.16344 32 16Z" fill="#8247E5"/>
	<path d="M20.6292 12.8902C20.3003 12.7003 19.8773 12.7003 19.5013 12.8902L16.8695 14.457L15.0836 15.454L12.4987 17.0208C12.1697 17.2107 11.7467 17.2107 11.3708 17.0208L9.34987 15.7863C9.02089 15.5964 8.7859 15.2166 8.7859 14.7893V12.4154C8.7859 12.0356 8.97389 11.6558 9.34987 11.4184L11.3708 10.2315C11.6997 10.0415 12.1227 10.0415 12.4987 10.2315L14.5196 11.4659C14.8486 11.6558 15.0836 12.0356 15.0836 12.4629V14.0297L16.8695 12.9852V11.3709C16.8695 10.9911 16.6815 10.6113 16.3055 10.3739L12.5457 8.14243C12.2167 7.95252 11.7937 7.95252 11.4178 8.14243L7.56397 10.4214C7.18799 10.6113 7 10.9911 7 11.3709V15.8338C7 16.2136 7.18799 16.5935 7.56397 16.8309L11.3708 19.0623C11.6997 19.2522 12.1227 19.2522 12.4987 19.0623L15.0836 17.543L16.8695 16.4985L19.4543 14.9792C19.7833 14.7893 20.2063 14.7893 20.5822 14.9792L22.6031 16.1662C22.9321 16.3561 23.1671 16.7359 23.1671 17.1632V19.5371C23.1671 19.9169 22.9791 20.2967 22.6031 20.5341L20.6292 21.7211C20.3003 21.911 19.8773 21.911 19.5013 21.7211L17.4804 20.5341C17.1514 20.3442 16.9164 19.9644 16.9164 19.5371V18.0178L15.1305 19.0623V20.6291C15.1305 21.0089 15.3185 21.3887 15.6945 21.6261L19.5013 23.8576C19.8303 24.0475 20.2533 24.0475 20.6292 23.8576L24.436 21.6261C24.765 21.4362 25 21.0564 25 20.6291V16.1187C25 15.7389 24.812 15.3591 24.436 15.1217L20.6292 12.8902Z" fill="white"/>
</svg>